# xmcd
#
# Track frame offsets:
#	180
#	15015
#	24321
#	36958
#	47042
#	58852
#	70200
#	79336
#	91073
#	102103
#
# Disc length: 1543 seconds
#
# Revision: 0
# Processed by: cddbd v1.5.2PL0 Copyright (c) Steve Scherf et al.
# Submitted via: EasyCDDAExtractor 10.2.0.1
#
DISCID=7006050a
DTITLE=The McGlothlins - My Hearts On Home
DYEAR=1999
DGENRE=Gospel
TTITLE0=Home
TTITLE1=Bound For Canaan
TTITLE2=Please Forgive me
TTITLE3=Sail On Over
TTITLE4=I Wonder What They're Doing
TTITLE5=Beyond The Sunset For me
TTITLE6=I've Found A Better Way
TTITLE7=I'm Going Yonder
TTITLE8=Over On The Other Side
TTITLE9=I'll Stand For The Lord
EXTD=
EXTT0=
EXTT1=
EXTT2=
EXTT3=
EXTT4=
EXTT5=
EXTT6=
EXTT7=
EXTT8=
EXTT9=
PLAYORDER=
